<svg xmlns="http://www.w3.org/2000/svg" xmlns:xlink="http://www.w3.org/1999/xlink" viewBox="0 0 441.04 272.05"><defs><style>.cls-1,.cls-2,.cls-3{fill:#dcdce5;}.cls-1{opacity:0.71;}.cls-3{opacity:0.34;}.cls-10,.cls-11,.cls-12,.cls-13,.cls-4,.cls-5,.cls-6,.cls-8,.cls-9{stroke:#373240;stroke-width:3px;}.cls-10,.cls-11,.cls-12,.cls-13,.cls-4,.cls-5,.cls-6,.cls-7,.cls-8,.cls-9{stroke-miterlimit:10;}.cls-4{fill:url(#linear-gradient);}.cls-5{fill:url(#linear-gradient-2);}.cls-6{fill:url(#linear-gradient-3);}.cls-7{stroke:#a0b1cc;fill:url(#linear-gradient-4);}.cls-8{fill:url(#linear-gradient-5);}.cls-9{fill:url(#linear-gradient-6);}.cls-10{fill:url(#linear-gradient-7);}.cls-11{fill:url(#linear-gradient-8);}.cls-12{fill:url(#linear-gradient-9);}.cls-13{fill:url(#linear-gradient-10);}</style><linearGradient id="linear-gradient" x1="28.7" y1="79.23" x2="120.25" y2="79.23" gradientUnits="userSpaceOnUse"><stop offset="0" stop-color="#f0b74f"/><stop offset="1" stop-color="#f0d479"/></linearGradient><linearGradient id="linear-gradient-2" x1="81.81" y1="80.65" x2="175.8" y2="80.65" xlink:href="#linear-gradient"/><linearGradient id="linear-gradient-3" x1="245.59" y1="189.09" x2="308.82" y2="189.09" gradientUnits="userSpaceOnUse"><stop offset="0" stop-color="#f0b74f"/><stop offset="0.6" stop-color="#f0ca6b"/><stop offset="1" stop-color="#f0d479"/></linearGradient><linearGradient id="linear-gradient-4" x1="142.38" y1="48.24" x2="142.43" y2="48.24" xlink:href="#linear-gradient"/><linearGradient id="linear-gradient-5" x1="135.75" y1="91.78" x2="233.22" y2="91.78" xlink:href="#linear-gradient"/><linearGradient id="linear-gradient-6" x1="211.17" y1="68.73" x2="298.72" y2="68.73" xlink:href="#linear-gradient"/><linearGradient id="linear-gradient-7" x1="281.29" y1="75.59" x2="368.84" y2="75.59" xlink:href="#linear-gradient"/><linearGradient id="linear-gradient-8" x1="335.3" y1="70.9" x2="421.59" y2="70.9" xlink:href="#linear-gradient"/><linearGradient id="linear-gradient-9" x1="100.7" y1="190.61" x2="202.9" y2="190.61" xlink:href="#linear-gradient"/><linearGradient id="linear-gradient-10" x1="167.57" y1="206.12" x2="278.14" y2="206.12" xlink:href="#linear-gradient"/></defs><g id="Layer_3" data-name="Layer 3"><path class="cls-1" d="M3.61,35s27.86.07,30.64-1.66c1.5,5.79,5.71,17,5.71,17l6.61,1S42.66,34,66.4,15.66c12.17,1.12,38.91-3.91,38.91-3.91S97.64,33.61,79,28.28C68.8,39,63.92,44.12,65.8,55.47,55.13,55.24,38.31,56.89,34.4,66a75.52,75.52,0,0,1-9.31-4.21l1.35,13.52s25.31-27.94,43.71-12S55.43,126.74,43.64,130.8c-2.25-4.21-3.9-7.51-3.9-7.51S29,135.83,20.81,120.13c3.15-6.46,9.46-19.75,8.56-24-4.81,0-14,.15-14,.15s-2.1-11.49-5.26-12.77c5.86.3,10.82.15,10.82.15v6.61l11.11,2.7.76-4.5,4.35,1.2-.6,16.07s18.25-23.43,8.71-27.94-15.17,11-15.17,11l-5.56-.6S22.91,51.48,3.31,43.75C3.68,39.39,3.61,35,3.61,35Z"/><path class="cls-1" d="M66.09,60.5S79.27,55.11,87,56.37c-2.2,6.71-9.56,23.13-2.55,51.87C96.24,118.36,121.93,134,121.93,134l5.71-8.31S94.09,78.1,107.11,54.21c8.31.2,46.57,0,46.57,0s6.41-35.9,13.52-37.7a31,31,0,0,0-6-4.76s-15.73,11.92-24.64,13.67-38.3,6.51-43.66,9.11-19.28,6.61-23,10.62-7.42,13.92-7.42,13.92L63.8,61Z"/><path class="cls-1" d="M248.55,183s13.19-5.38,20.95-4.13a83.48,83.48,0,0,0-4.07,13.83,89.18,89.18,0,0,0,2.86,44.83,91.1,91.1,0,0,0,36.11,19l3.49-5.08a86.32,86.32,0,0,1-10.75-16.57c-11.76-23.72-9.5-46.94-7.56-58.11,7.09,2,21.7,4.88,38.2-.48a63.21,63.21,0,0,0,15-7.21,122.49,122.49,0,0,0,8.71-33.95,8.63,8.63,0,0,1-6.3-4.21,78,78,0,0,1-26.19,17c-8.59,3.32-16.71,4.56-51.1,12.11-3.81.83-10.2,2.32-15.55,7.62A28.5,28.5,0,0,0,245,181.57Z"/><path class="cls-1" d="M126,97.83l-3.41,5.4s23.54,13.82,8.61,33.45c3.41,3.21,5,4.41,5,4.41s13.37-17.93,23.89-20.43c-3.71-10.62-8-21.43-6.81-28,8.41,2.5,16,5.91,22.83,16.22s17.82,25.94,41.66,27.44,10.92-33.75,0-40.86c-7.11-4.4,4.61-2.8,4.61-2.8l.2-5.41s-21.84.9-27.44-2.2c-7.31,3.9-10.42,4.1-8.62,22.43-6.41-9.61-11.21-17.62-21.43-18a20.68,20.68,0,0,0,0-2.6s37.66-4,37.46-24-16.93-24-18.63-31.85c-7.51,2.6-26.08,5-26.08,5l1.94-6.55-21.13,2.9-2,4.81s-7.11-.3-6.61-.4-1,20.63-1,20.63l5-.4s-3.17,29,7.61,48.27C133,101.53,126,97.83,126,97.83Z"/><path class="cls-2" d="M156,54S150.22,78.8,153,84c9.11-.4,31.14-6.51,26.23-23.84S156,54,156,54Z"/><path class="cls-1" d="M301.54,4.09l2.61,2S287.52,28,288.52,33.33c-5.61,2.41-11.81,4.41-11.81,4.41s-35.66-4.71-40.46,1.4c13.12,2.91,30.24,10,30.24,10v7.21l-9.81,6.41h-8.82S234.37,47.9,220.54,72.87,268,79.7,278.11,62.38c9.81-.21,21.43-.81,21.43-.81S276.4,81.2,285.72,98c-12.52.8-18,2.6-18,2.6S211.21,143.29,206.6,82c0-24.53,22.84-37.95,40.86-33C232,41.34,228.33,44.15,226,44.35s-32.85,5.21,0-22C252,22.92,271.7,23.52,301.54,4.09Z"/><path class="cls-1" d="M379.67,11.73l2.6,2S365.65,35.67,366.65,41c-5.61,2.4-11.82,4.4-11.82,4.4s-35.65-4.7-40.46,1.41c13.12,2.9,30.25,10,30.25,10V64l-9.82,6.41H326S312.5,55.55,298.66,80.51,346.12,87.34,356.23,70c9.82-.2,21.43-.8,21.43-.8s-23.13,19.63-13.82,36.45c-12.51.8-18,2.6-18,2.6s-56.48,42.67-61.09-18.62c0-24.54,22.83-38,40.86-33.05C310.17,49,306.46,51.79,304.16,52s-32.85,5.21,0-22C330.1,30.56,349.82,31.16,379.67,11.73Z"/><path class="cls-1" d="M344.9,10.4l5.41-3.76s28,20.81,57.24,23.44S441,52,441,52l-4.2,2.1s-10.07-6.83-19.83-4.2c5.41,15.77,9.24,35.15.53,52.35-10,7-24.72,16.07-32.6,15-1.05-1.73-2.67-4.51-2.67-4.51s29-32.52,17.84-63.84c-7.14.23-39.58,1.43-46-11.79S345.05,14.83,344.9,10.4Z"/><path class="cls-1" d="M92.54,211.09l6.61-3.9,6.16,14s20.58-33.83,19.67-44.05-14.72-22.23-14.72-22.23l12.32-5.41,13.82,9.32,7.21-12.32s18.78-7.81,27.34-5.41L184.47,134l3,7.11s-43.87,41.61-15,71.2c18.63,22.84,24.94,28.85,24.94,28.85l-2.7,3.3s-33.5-20.43-40.56-17.73c-1-6.61-5.41-15.62-5.41-15.62s-8.56,5.26-12.62,4.81-12-6-12-6-20.88,42.66-29.14,46.87c-6.46-2.11-11.42-4.21-11.42-4.21S96.89,235,96.44,223.71,92.54,211.09,92.54,211.09Z"/><path class="cls-2" d="M133.7,165.43l6.76,4.5s.15,13.22,3.45,16.83c-5.11,0-9.46-.91-13.52,1.5C132.2,181.65,136.55,169.33,133.7,165.43Z"/><path class="cls-1" d="M158,157.57l24-4.31,6.61,9s23.28.45,38.75-9c4.81,14.12,29.3,44.31,20.43,54.38s-22.58,12.77-41.26,6.91A81.39,81.39,0,0,1,224.13,238l-3.59-16.79s22.67.27,27-8.15c7.36.3,20.43,3.91,20.43,3.91l-3.9,8.11s-13.22-1.5-15,0,32.14,43.26,32.14,43.26-9.61,4.51-14.72,3.61c-3.3-4.06-27.52-12.32-35.32-10.52-4.94-9.31-23-45.25-38.89-44.76a99.67,99.67,0,0,1-1.14,17.77l-7.87-2.75S193.93,190.13,158,157.57Z"/><path class="cls-3" d="M.3,31S28.17,31,31,29.29c1.5,5.79,5.7,17,5.7,17l6.61,1s-3.9-17.43,19.83-35.75C75.26,12.69,102,7.66,102,7.66S94.34,29.52,75.71,24.19C65.5,34.93,60.61,40,62.49,51.37,51.83,51.15,35,52.8,31.1,61.89a75.25,75.25,0,0,1-9.32-4.21L23.13,71.2s25.32-27.94,43.72-12-14.72,63.46-26.52,67.52c-2.25-4.21-3.9-7.51-3.9-7.51S25.69,131.74,17.5,116c3.16-6.46,9.46-19.75,8.56-24-4.8,0-14,.15-14,.15S10,80.67,6.83,79.39c5.86.3,10.82.15,10.82.15v6.61l11.12,2.7.75-4.5,4.35,1.2-.6,16.07S51.52,78.19,42,73.68s-15.18,11-15.18,11l-5.55-.6S19.6,47.39,0,39.66C.38,35.3.3,31,.3,31Z"/><path class="cls-3" d="M62.78,56.41S76,51,83.72,52.28c-2.2,6.71-9.56,23.13-2.55,51.87,11.77,10.12,37.45,25.74,37.45,25.74l5.71-8.31S90.78,74,103.8,50.12c8.31.2,46.57,0,46.57,0s6.41-35.9,13.52-37.7a31,31,0,0,0-6-4.76s-15.72,11.92-24.64,13.67-38.3,6.51-43.66,9.11-19.28,6.61-23,10.62S59.17,55,59.17,55l1.32,1.9Z"/><path class="cls-3" d="M245.25,178.91s13.18-5.38,20.94-4.13a84.45,84.45,0,0,0-4.07,13.83A89,89,0,0,0,265,233.44a91.16,91.16,0,0,0,36.1,18.95l3.49-5.08a86.32,86.32,0,0,1-10.75-16.57c-11.76-23.72-9.5-46.94-7.56-58.11,7.09,2,21.7,4.88,38.2-.48a62.83,62.83,0,0,0,15-7.21A122.91,122.91,0,0,0,348.21,131a8.62,8.62,0,0,1-6.31-4.21,78,78,0,0,1-26.19,17.05c-8.58,3.32-16.71,4.56-51.1,12.11-3.81.83-10.2,2.32-15.54,7.62a28.45,28.45,0,0,0-7.43,13.92Z"/><path class="cls-3" d="M122.68,93.74l-3.41,5.4s23.54,13.82,8.62,33.45c3.4,3.21,5,4.41,5,4.41s13.37-17.93,23.89-20.43c-3.71-10.62-8-21.43-6.81-28,8.41,2.5,16,5.91,22.83,16.22s17.83,25.94,41.66,27.44,10.92-33.75,0-40.86c-7.11-4.4,4.61-2.8,4.61-2.8l.2-5.41s-21.83.9-27.44-2.2c-7.31,3.9-10.42,4.1-8.61,22.43-6.41-9.61-11.22-17.63-21.43-18a20.68,20.68,0,0,0,0-2.6s37.65-4,37.45-24-16.92-24-18.63-31.85c-7.51,2.6-26.08,5.05-26.08,5.05l1.94-6.55-21.12,2.9-2,4.81s-7.11-.3-6.61-.4-1,20.63-1,20.63l5-.4s-3.17,29,7.61,48.27C129.69,97.44,122.68,93.74,122.68,93.74Z"/><path class="cls-3" d="M298.23,0l2.61,2s-16.63,21.93-15.63,27.24c-5.6,2.41-11.81,4.41-11.81,4.41s-35.65-4.71-40.46,1.4c13.12,2.91,30.24,10,30.24,10v7.21l-9.81,6.41h-8.81s-13.49-14.88-27.33,10.09,47.46,6.83,57.57-10.5c9.81-.2,21.43-.8,21.43-.8S273.1,77.11,282.41,93.94c-12.52.8-18,2.6-18,2.6S207.9,139.2,203.3,77.91c0-24.53,22.83-37.95,40.86-33-15.43-7.62-19.13-4.81-21.44-4.61s-32.84,5.21,0-22C248.66,18.83,268.39,19.43,298.23,0Z"/><path class="cls-3" d="M376.36,7.64l2.6,2s-16.62,21.93-15.62,27.24c-5.61,2.4-11.82,4.4-11.82,4.4s-35.65-4.7-40.46,1.41c13.12,2.9,30.25,10,30.25,10v7.21l-9.82,6.41h-8.81s-13.49-14.87-27.32,10.09,47.45,6.83,57.57-10.49c9.81-.2,21.43-.8,21.43-.8s-23.14,19.63-13.82,36.45c-12.52.8-18,2.6-18,2.6S286,146.85,281.42,85.56c0-24.54,22.83-38,40.86-33.05-15.42-7.61-19.13-4.81-21.43-4.61s-32.85,5.21,0-22C326.79,26.47,346.52,27.07,376.36,7.64Z"/><path class="cls-3" d="M341.6,6.31,347,2.55S375,23.36,404.24,26s33.5,21.93,33.5,21.93L433.53,50s-10.06-6.83-19.83-4.2c5.41,15.77,9.24,35.15.53,52.35-10,7-24.71,16.07-32.6,15-1.05-1.73-2.67-4.51-2.67-4.51s29-32.52,17.84-63.84c-7.13.23-39.58,1.43-46-11.79S341.75,10.74,341.6,6.31Z"/><path class="cls-3" d="M89.23,207l6.61-3.9,6.16,14s20.58-33.83,19.68-44S107,150.82,107,150.82l12.31-5.41,13.82,9.32,7.21-12.32s18.78-7.81,27.34-5.41l13.52-7.11,3,7.11s-43.87,41.61-15,71.2C187.77,231,194.08,237,194.08,237l-2.7,3.31s-33.5-20.43-40.56-17.73c-1-6.61-5.41-15.62-5.41-15.62s-8.56,5.26-12.62,4.81-12-6-12-6S99.9,248.46,91.63,252.67c-6.46-2.11-11.41-4.21-11.41-4.21s13.37-17.57,12.92-28.84S89.23,207,89.23,207Z"/><path class="cls-3" d="M154.73,153.48l24-4.31,6.61,9s23.28.45,38.76-9c4.8,14.12,29.29,44.31,20.43,54.38S222,216.31,203.3,210.46a81.46,81.46,0,0,1,17.52,23.43l-3.59-16.79s22.67.27,27-8.15c7.36.3,20.43,3.91,20.43,3.91L260.78,221s-13.22-1.5-15,0,32.14,43.26,32.14,43.26-9.61,4.51-14.72,3.61c-3.3-4.06-27.52-12.32-35.31-10.52-5-9.31-23-45.25-38.9-44.76a98.64,98.64,0,0,1-1.14,17.77L180,227.58S190.63,186,154.73,153.48Z"/><path class="cls-2" d="M190.48,168l16.12-2.55s34.05,38.75-11.31,38.3C195.44,191,200.24,170.53,190.48,168Z"/><path class="cls-4" d="M29,46.7s25,.06,27.5-1.49c1.35,5.2,5.12,15.24,5.12,15.24l5.94.94S64,45.75,85.32,29.3c10.93,1,34.93-3.5,34.93-3.5s-6.88,19.62-23.6,14.83C87.48,50.27,83.1,54.85,84.79,65c-9.58-.2-24.68,1.29-28.18,9.44a66.43,66.43,0,0,1-8.36-3.77l1.21,12.13S72.18,57.75,88.7,72.05s-13.22,57-23.8,60.6c-2-3.77-3.51-6.74-3.51-6.74s-9.64,11.26-17-2.83c2.83-5.8,8.5-17.73,7.69-21.57-4.32,0-12.54.13-12.54.13s-1.89-10.31-4.72-11.46c5.26.27,9.71.14,9.71.14v5.93l10,2.42.67-4,3.91,1.08-.54,14.43s16.38-21,7.82-25.08S52.76,94.9,52.76,94.9l-5-.54S46.29,61.46,28.7,54.52C29,50.61,29,46.7,29,46.7Z"/><path class="cls-5" d="M85,69.55s11.84-4.83,18.8-3.71c-2,6-8.58,20.77-2.29,46.57,10.56,9.07,33.62,23.1,33.62,23.1l5.12-7.46s-30.11-42.7-18.43-64.14c7.46.18,41.8,0,41.8,0s5.75-32.22,12.14-33.84a27.76,27.76,0,0,0-5.4-4.27s-14.11,10.7-22.11,12.27-34.38,5.84-39.19,8.18-17.3,5.93-20.63,9.53-6.66,12.49-6.66,12.49L83,70Z"/><path class="cls-6" d="M248.82,179.51s11.83-4.84,18.8-3.71A75,75,0,0,0,264,188.21a79.89,79.89,0,0,0,2.57,40.24,81.89,81.89,0,0,0,32.41,17l3.13-4.56A76.72,76.72,0,0,1,292.43,226c-10.56-21.29-8.53-42.13-6.79-52.15a59.84,59.84,0,0,0,34.29-.43A56.71,56.71,0,0,0,333.41,167a109.94,109.94,0,0,0,7.82-30.47,8.09,8.09,0,0,1-2.77-.94,8,8,0,0,1-2.89-2.84,70,70,0,0,1-23.5,15.3c-7.71,3-15,4.09-45.86,10.87-3.43.75-9.16,2.08-14,6.84a25.45,25.45,0,0,0-6.66,12.5Z"/><path class="cls-7" d="M142.41,48.23l0,0C142.38,48.25,142.37,48.24,142.41,48.23Z"/><path class="cls-8" d="M221.15,100.9c-6.39-4,4.13-2.51,4.13-2.51l.18-4.86s-19.59.81-24.63-2c-6.56,3.51-9.35,3.69-7.73,20.14-5.75-8.63-10.07-15.82-19.23-16.18a18.61,18.61,0,0,0,0-2.34s33.79-3.59,33.61-21.57S192.29,50,190.76,43c-6.74,2.33-23.41,4.53-23.41,4.53l1.75-5.88-19,2.6-1.8,4.32s-5.39-.23-5.91-.34c.37.54-.92,18.5-.92,18.5l4.49-.36s-2.84,26,6.83,43.32c-7.73-3.32-14-6.65-14-6.65l-3.06,4.85s21.13,12.41,7.73,30c3.06,2.87,4.45,3.95,4.45,3.95s12-16.09,21.44-18.34c-3.32-9.52-7.19-19.23-6.11-25.16,7.55,2.24,14.38,5.3,20.49,14.56s16,23.28,37.4,24.63S230.94,107.28,221.15,100.9ZM163.08,90.66c-2.52-4.68,2.7-27,2.7-27s16.45-10,20.85,5.57S171.26,90.3,163.08,90.66Z"/><path class="cls-9" d="M296.38,18.92l2.34,1.8s-14.92,19.69-14,24.45c-5,2.16-10.61,3.95-10.61,3.95s-32-4.22-36.32,1.26c11.78,2.61,27.15,9,27.15,9v6.47l-8.81,5.76H248.2s-12.11-13.35-24.53,9.05,42.6,6.14,51.68-9.41c8.81-.18,19.23-.72,19.23-.72s-20.76,17.62-12.4,32.72c-11.24.72-16.18,2.33-16.18,2.33s-50.7,38.3-54.83-16.72c0-22,20.49-34.06,36.67-29.66-13.84-6.83-17.17-4.31-19.23-4.13s-29.49,4.67,0-19.78C251.89,35.82,269.59,36.36,296.38,18.92Z"/><path class="cls-10" d="M366.5,25.78l2.34,1.8s-14.92,19.69-14,24.45c-5,2.16-10.61,4-10.61,4s-32-4.23-36.31,1.25c11.77,2.61,27.14,9,27.14,9V72.7l-8.81,5.76h-7.91s-12.1-13.35-24.52,9.05,42.59,6.14,51.67-9.41c8.81-.18,19.24-.72,19.24-.72S343.94,95,352.3,110.1c-11.23.72-16.18,2.33-16.18,2.33s-50.69,38.3-54.83-16.71c0-22,20.49-34.07,36.67-29.67-13.84-6.83-17.16-4.31-19.23-4.13s-29.48,4.67,0-19.78C322,42.68,339.72,43.22,366.5,25.78Z"/><path class="cls-11" d="M335.3,24.58l4.86-3.37s25.14,18.68,51.37,21,30.06,19.68,30.06,19.68l-3.77,1.89s-9-6.13-17.8-3.77c4.86,14.15,8.29,31.55.47,47-9,6.27-22.18,14.43-29.26,13.49-.94-1.55-2.39-4-2.39-4s26.06-29.19,16-57.3c-6.4.2-35.53,1.28-41.26-10.59S335.44,28.56,335.3,24.58Z"/><path class="cls-12" d="M197.29,225.66c-1.65-1.86-3.71-4.22-6.24-7.2-2.88-3.38-6.36-7.55-10.53-12.66-12.18-12.5-9.91-27.39-4.1-39.65,0,0,0,0,0,0a80.32,80.32,0,0,1,7.44-12.38A93.29,93.29,0,0,1,194,141.89l-2.7-6.38-12.13,6.38c-7.69-2.16-24.54,4.86-24.54,4.86l-6.47,11.05-12.41-8.36-11,4.86s12.4,10.78,13.21,19.95-17.66,39.54-17.66,39.54l-5.53-12.57-5.93,3.5s3.1,1.22,3.5,11.33-11.59,25.89-11.59,25.89,4.45,1.88,10.24,3.77c7.42-3.77,26.16-42.07,26.16-42.07s7.15,5,10.79,5.4,11.32-4.32,11.32-4.32,3.91,8.09,4.86,14c6.34-2.43,36.4,15.91,36.4,15.91l2.43-3S201.3,230.17,197.29,225.66Zm-54.53-41.43c1.62-5.93,5.53-17,3-20.5l6.07,4.05s.13,11.86,3.1,15.1C150.32,182.88,146.41,182.07,142.76,184.23Z"/><path class="cls-13" d="M249.28,217.26c1.62-1.35,13.48,0,13.48,0l3.51-7.28s-11.73-3.23-18.34-3.5c-3.91,7.55-24.25,7.31-24.25,7.31l3.21,15a73.55,73.55,0,0,0-15.72-21c16.76,5.26,29.08,2.84,37-6.2s-14-36.13-18.33-48.81c-13.89,8.5-34.79,8.09-34.79,8.09l-5.93-8.09-5.29.95-16.29,2.93a77.26,77.26,0,0,1,8.85,9.45s0,0,0,0a70.69,70.69,0,0,1,14.63,52.31,43.3,43.3,0,0,1-.82,4.73l7.06,2.47a89.57,89.57,0,0,0,1-15.95c14.23-.43,30.47,31.82,34.9,40.18,7-1.62,28.74,5.8,31.7,9.44,4.59.81,13.22-3.24,13.22-3.24S247.66,218.61,249.28,217.26ZM196.7,166l14.47-2.3s30.56,34.79-10.16,34.39C201.15,186.66,205.46,168.32,196.7,166Z"/></g></svg>